<svg width="160" height="160" viewBox="0 0 160 160" fill="none" xmlns="http://www.w3.org/2000/svg">
<path d="M79.7591 159.518C123.809 159.518 159.518 123.809 159.518 79.7591C159.518 35.7094 123.809 0 79.7591 0C35.7094 0 0 35.7094 0 79.7591C0 123.809 35.7094 159.518 79.7591 159.518Z" fill="#1A5B5B"/>
<path d="M141.707 105.639C140.84 105.221 139.843 105.163 138.934 105.479C138.025 105.795 137.279 106.459 136.86 107.324C135.035 111.093 132.841 114.674 130.31 118.013C129.715 111.587 127.952 96.4534 123.481 81.1026C120.034 69.272 115.692 59.7893 110.559 52.9193C103.747 43.7954 95.5319 39.1719 86.1405 39.1719C76.1377 39.1719 67.4993 44.6705 60.4631 55.5173C55.1832 63.6592 50.7724 74.9028 47.3558 88.9546C45.1913 97.8538 43.7016 106.691 42.6838 114.301C42.2495 116.393 41.8727 118.607 41.5534 120.944C41.1125 124.171 40.8385 127.215 40.668 129.822C38.5911 128.201 36.6152 126.454 34.7512 124.593C28.6751 118.523 23.8963 111.285 20.7041 103.316C17.5119 95.3481 15.9729 86.8157 16.1802 78.236C16.3875 69.6563 18.3369 61.2079 21.9102 53.4025C25.4836 45.5972 30.6065 38.5974 36.9687 32.8271C43.3308 27.0568 50.7999 22.6362 58.9233 19.8329C67.0468 17.0297 75.6556 15.9022 84.2282 16.5188C92.8009 17.1354 101.159 19.4832 108.796 23.42C116.433 27.3568 123.191 32.8007 128.659 39.4219C129.274 40.156 130.155 40.6175 131.109 40.7057C132.063 40.7938 133.014 40.5014 133.753 39.8923C134.492 39.2831 134.96 38.4068 135.054 37.4544C135.149 36.5021 134.862 35.5512 134.257 34.8092C125.134 23.7548 112.864 15.7285 99.0713 11.7937C85.2783 7.85879 70.6136 8.20103 57.0198 12.775C43.426 17.349 31.5446 25.939 22.9496 37.4069C14.3547 48.8748 9.45168 62.6794 8.8902 76.9922C8.32872 91.3049 12.1352 105.45 19.8055 117.554C27.4758 129.658 38.6478 139.15 51.8416 144.772C65.0355 150.394 79.6284 151.88 93.6874 149.035C107.746 146.189 120.608 139.146 130.568 128.838C135.79 123.44 140.118 117.247 143.39 110.491C143.6 110.062 143.722 109.596 143.751 109.12C143.78 108.644 143.714 108.166 143.558 107.716C143.401 107.265 143.157 106.849 142.84 106.493C142.522 106.136 142.137 105.846 141.707 105.639ZM66.5758 59.4252C69.3156 55.2075 72.3057 51.9754 75.4664 49.814C78.8012 47.5294 82.294 46.4188 86.1405 46.4188C93.2022 46.4188 99.2786 49.9498 104.716 57.2113C108.131 61.7732 111.188 67.7193 113.845 74.9662C111.439 73.2064 108.803 72.3265 105.937 72.3265C99.9173 72.3265 94.8696 76.6548 90.9432 85.1898C88.1853 91.1812 85.872 99.4409 84.0685 109.737C83.7455 111.581 83.4498 113.424 83.1812 115.243C78.8085 97.9571 72.0263 89.1992 62.9942 89.1992C59.7887 89.1784 56.6613 90.1863 54.0728 92.0744C54.1907 91.5762 54.3086 91.0761 54.4356 90.5779C57.6562 77.3468 61.7422 66.866 66.5758 59.4252ZM47.96 134.73C48.1723 131.3 48.7058 124.222 49.8615 115.504C51.2623 108.88 53.4795 102.631 56.9159 99.151C58.714 97.3393 60.7026 96.4461 62.9942 96.4461C65.8011 96.4461 68.461 98.6093 70.9013 102.878C73.2274 106.949 75.236 112.728 76.8689 120.055C78.9192 129.262 79.8336 138.591 80.1893 143.16C80.0078 143.16 79.8355 143.16 79.6577 143.16C68.5325 143.187 57.5977 140.279 47.96 134.73ZM113.843 133.201C105.967 138.235 97.0708 141.461 87.7952 142.645C88.0583 137.465 88.9147 124.109 91.2281 110.922C92.9264 101.256 95.051 93.6089 97.5477 88.1937C99.3675 84.2622 102.289 79.5734 105.937 79.5734C108.744 79.5734 111.404 81.7367 113.843 86.0051C116.171 90.0779 118.177 95.8573 119.809 103.182C121.815 112.201 122.735 121.336 123.105 126.01C120.246 128.686 117.145 131.093 113.843 133.201Z" fill="white"/>
<path d="M78.7649 66.3065H48.7105C47.7501 66.3065 46.8291 65.9249 46.15 65.2457C45.4709 64.5665 45.0894 63.6453 45.0894 62.6847C45.0894 61.7242 45.4709 60.8029 46.15 60.1237C46.8291 59.4445 47.7501 59.0629 48.7105 59.0629C49.6708 59.0629 50.5918 58.6813 51.2709 58.0021C51.95 57.3229 52.3315 56.4017 52.3315 55.4411C52.3315 54.4806 51.95 53.5594 51.2709 52.8801C50.5918 52.2009 49.6708 51.8193 48.7105 51.8193H30.6054C29.645 51.8193 28.724 52.2009 28.0449 52.8801C27.3659 53.5594 26.9844 54.4806 26.9844 55.4411C26.9844 56.4017 27.3659 57.3229 28.0449 58.0021C28.724 58.6813 29.645 59.0629 30.6054 59.0629H30.5312H35.3127C36.2731 59.0531 37.198 59.4252 37.884 60.0975C38.5701 60.7697 38.961 61.687 38.9708 62.6476C38.9807 63.6082 38.6086 64.5333 37.9365 65.2195C37.2644 65.9056 36.3473 66.2967 35.3869 66.3065H35.8559C34.8955 66.3065 33.9745 66.6881 33.2954 67.3673C32.6163 68.0465 32.2348 68.9678 32.2348 69.9283C32.2348 70.8889 32.6163 71.8101 33.2954 72.4893C33.9745 73.1685 34.8955 73.5501 35.8559 73.5501H78.7649C79.7252 73.5501 80.6463 73.1685 81.3253 72.4893C82.0044 71.8101 82.3859 70.8889 82.3859 69.9283C82.3859 68.9678 82.0044 68.0465 81.3253 67.3673C80.6463 66.6881 79.7252 66.3065 78.7649 66.3065Z" fill="white"/>
</svg>
